<svg xmlns="http://www.w3.org/2000/svg" viewBox="0 0 100 100" fill="currentColor" >
  <path d="M100,50,86.64,41.09A98.84,98.84,0,0,1,75.3,32.28l4.26-11.84L67.72,24.7a98.84,98.84,0,0,1-8.81-11.34L50,0,41.09,13.36A98.84,98.84,0,0,1,32.28,24.7L20.44,20.44,24.7,32.28a98.84,98.84,0,0,1-11.34,8.81L0,50l13.36,8.91A98.84,98.84,0,0,1,24.7,67.72L20.44,79.56,32.28,75.3a98.84,98.84,0,0,1,8.81,11.34L50,100l8.91-13.36A98.84,98.84,0,0,1,67.72,75.3l11.84,4.26L75.3,67.72a98.84,98.84,0,0,1,11.34-8.81ZM50,84A122.56,122.56,0,0,0,16,50,122.56,122.56,0,0,0,50,16,122.56,122.56,0,0,0,84,50,122.56,122.56,0,0,0,50,84Z"/>
  <path d="M74.36,63.49l-4.23,4.25L65.9,72l-6.37-6a38.12,38.12,0,0,1-6.39-7.87L50,53l-3.14,5.13A38.12,38.12,0,0,1,40.47,66L34.1,72l-4.23-4.25-4.23-4.25L36.16,52.05a37.22,37.22,0,0,0,3.07-3.8L50,33,60.77,48.25a37.22,37.22,0,0,0,3.07,3.8Z"/>
</svg>
